<svg xmlns="http://www.w3.org/2000/svg" width="669.153" height="605.489" viewBox="0 0 669.153 605.489">
  <g id="Group_5" data-name="Group 5" transform="translate(-40.04 -178)">
    <path id="Path_195" data-name="Path 195" d="M205.189,158.227C137.7,222.684,55.4,275.283,59.859,323.4c4.462,47.994,95.667,91.39,196.743,130.672,101.233,39.331,212.182,74.548,298.98,52.487S705.062,404.923,723.2,324.584s-7.842-161.646-72.8-225.635S481.837-12.009,403.527,2.728,272.677,93.658,205.189,158.227Z" transform="translate(-19.645 270.118)" fill="#f2f2f2"/>
    <g id="Layer_2" data-name="Layer 2" transform="translate(49 119)">
      <g id="Layer_2-2" data-name="Layer 2" transform="translate(0)">
        <ellipse id="Ellipse_14" data-name="Ellipse 14" cx="63.11" cy="13.95" rx="63.11" ry="13.95" transform="translate(349.51 462.01)"/>
        <line id="Line_10" data-name="Line 10" x2="35.45" y2="110.95" transform="translate(412.62 475.96)" fill="none" stroke="#000" stroke-linecap="round" stroke-miterlimit="10" stroke-width="4"/>
        <line id="Line_11" data-name="Line 11" x1="35.45" y2="110.95" transform="translate(377.17 475.96)" fill="none" stroke="#000" stroke-linecap="round" stroke-miterlimit="10" stroke-width="4"/>
        <line id="Line_12" data-name="Line 12" x1="39.52" y1="25.34" transform="translate(396.91 525.14)" fill="none" stroke="#000" stroke-linecap="round" stroke-miterlimit="10" stroke-width="2"/>
        <line id="Line_13" data-name="Line 13" x1="39.53" y2="25.34" transform="translate(388.96 525.14)" fill="none" stroke="#000" stroke-linecap="round" stroke-miterlimit="10" stroke-width="2"/>
        <path id="Path_135" data-name="Path 135" d="M393.25,356.86c.16,4.92.09,22.15.9,29.52" transform="translate(-42.74 -1)" fill="none" stroke="#1f161e" stroke-linecap="round" stroke-miterlimit="10" stroke-width="1"/>
        <rect id="Rectangle_25" data-name="Rectangle 25" width="12.66" height="34.51" rx="6.33" transform="translate(548.54 191.63)"/>
        <ellipse id="Ellipse_15" data-name="Ellipse 15" cx="12.7" cy="12.7" rx="12.7" ry="12.7" transform="translate(542.17 237.47)" fill="#fbdc8e"/>
        <path id="Path_136" data-name="Path 136" d="M591.4,342h-6a2.39,2.39,0,0,1-2.38-2.38V302.74a2.35,2.35,0,0,1,.7-1.68l7.58-7.58a2.37,2.37,0,0,1,1.68-.7h22.39a2.39,2.39,0,0,1,2.38,2.38v3.56" transform="translate(-456.11 -1)" fill="#fbdc8e"/>
        <path id="Path_143" data-name="Path 143" d="M584.68,298.72h22a2.68,2.68,0,0,1,2.68,2.69v43.8a2.69,2.69,0,0,1-2.68,2.69H577.29a2.69,2.69,0,0,1-2.68-2.69v-36.4a2.68,2.68,0,0,1,.78-1.9l7.4-7.4A2.68,2.68,0,0,1,584.68,298.72Z" transform="translate(-439.31 -1)" fill="#d8d8d8"/>
        <path id="Path_144" data-name="Path 144" d="M600.4,307.76h7.47a1.5,1.5,0,0,0,1.5-1.5v-7.54" transform="translate(-465.11 -1)" fill="#969696"/>
        <path id="Path_145" data-name="Path 145" d="M608.8,301.83h7.47a1.52,1.52,0,0,0,1.51-1.51v-7.54" transform="translate(-481.92 -1)" fill="#64ccc4"/>
        <rect id="Rectangle_27" data-name="Rectangle 27" width="57.62" height="22.9" rx="3.03" transform="translate(166.99 247.65)" fill="#78e5e1"/>
        <path id="Path_146" data-name="Path 146" d="M548.85,287.25l-6.94-21.02h13.88Z" transform="translate(-353.04 -1)" fill="#78e5e1"/>
        <path id="Path_147" data-name="Path 147" d="M535.09,254.75l5.82,10.07H529.28Z" transform="translate(-325.53 -1)" fill="#fff"/>
        <path id="Path_148" data-name="Path 148" d="M562.61,264.82l-5.82-10.07h11.64Z" transform="translate(-380.56 -1)" fill="#fff"/>
        <ellipse id="Ellipse_16" data-name="Ellipse 16" cx="4.37" cy="4.37" rx="4.37" ry="4.37" transform="translate(191.44 254.42)" fill="#fff"/>
        <rect id="Rectangle_28" data-name="Rectangle 28" width="39.14" height="25.76" rx="2.65" transform="translate(197.65 199.12)" fill="#d8d8d8"/>
        <line id="Line_14" data-name="Line 14" x1="18.34" y2="12.07" transform="translate(217.22 199.93)" fill="none" stroke="#969696" stroke-linecap="round" stroke-linejoin="round" stroke-width="0.82"/>
        <line id="Line_15" data-name="Line 15" x2="19.57" y2="12.88" transform="translate(197.65 199.12)" fill="none" stroke="#969696" stroke-linecap="round" stroke-linejoin="round" stroke-width="0.82"/>
        <ellipse id="Ellipse_17" data-name="Ellipse 17" cx="5.6" cy="5.6" rx="5.6" ry="5.6" transform="translate(192.05 193.52)" fill="#fbdc8e"/>
        <text id="_1" data-name="1" transform="matrix(-1, 0, 0, 1, 199.27, 200.28)" fill="#fff" font-size="7" font-family="Helvetica-Bold, Helvetica" font-weight="700"><tspan x="0" y="0">1</tspan></text>
        <rect id="Rectangle_36" data-name="Rectangle 36" width="8.96" height="1.88" rx="0.94" transform="translate(157.16 302.24)" fill="#969696"/>
        <rect id="Rectangle_37" data-name="Rectangle 37" width="8.96" height="1.88" rx="0.94" transform="translate(157.16 306.76)" fill="#969696"/>
        <rect id="Rectangle_38" data-name="Rectangle 38" width="27.73" height="1.88" rx="0.94" transform="translate(138.8 314.49)" fill="#969696"/>
        <rect id="Rectangle_39" data-name="Rectangle 39" width="27.73" height="1.88" rx="0.94" transform="translate(138.8 318.93)" fill="#969696"/>
        <rect id="Rectangle_40" data-name="Rectangle 40" width="27.73" height="1.88" rx="0.94" transform="translate(138.8 323.37)" fill="#969696"/>
        <rect id="Rectangle_44" data-name="Rectangle 44" width="60.51" height="41.81" rx="12" transform="translate(257.01 221.31)" fill="#d8d8d8"/>
        <rect id="Rectangle_45" data-name="Rectangle 45" width="9.1" height="28.35" transform="translate(295.9 228.04)" fill="#ab8de5"/>
        <rect id="Rectangle_46" data-name="Rectangle 46" width="9.1" height="9.5" transform="translate(282.71 246.9)" fill="#ab8de5"/>
        <rect id="Rectangle_47" data-name="Rectangle 47" width="9.1" height="17.49" transform="translate(269.53 238.9)" fill="#ab8de5"/>
        <path id="Path_149" data-name="Path 149" d="M184.79,152.88a38.29,38.29,0,0,1,38.3,38.29h-76.6a38.29,38.29,0,0,1,38.3-38.29Z" transform="translate(370.08 59)" fill="#78e5e1"/>
        <line id="Line_16" data-name="Line 16" y1="138.92" transform="translate(554.87 60)" fill="none" stroke="#000" stroke-linecap="round" stroke-linejoin="round" stroke-width="2"/>
        <path id="Path_150" data-name="Path 150" d="M522.407,574.68c0,2.37,1.39,17.32-1.38,18.7s-33.22,2.22-34.6.83-2.21-4.29-1-5.12,13-3.18,14.6-4.29,3.81-7,3-10.12" transform="translate(-262.936 -1)" fill="#1f161e"/>
        <path id="Path_151" data-name="Path 151" d="M264.46,379.25l-17.14-6.15c.74-31.27,8.05-101.14,18.43-111.53,2.44-2.43,50.7-6.67,59.31-6.67,51.38,0,66.62,5.86,70.49,9.74,12,12,15.74,67.6,15.74,87.07s-55,29.57-55,29.57l-64.47,4.43s-14.14,1.46-26.37,2.18C265.18,384.14,264.46,379.25,264.46,379.25Z" transform="translate(86.05 -1)" fill="#7e99dc"/>
        <path id="Path_152" data-name="Path 152" d="M548.85,397.38c-4.69-1.39-51.33-9-61.49,1s-42.14,153.37-42.14,156.67h25.75l34.76-74.81" transform="translate(-249.41 -1)" fill="#1f161e"/>
        <path id="Path_153" data-name="Path 153" d="M500.13,384.63c1.17,5.85,8.2,12.13,8.2,44,0,44.07-36.1,45-49.06,45-40.38,0-105.71-12-110.12-14.2-2.93,4.9-56.86,115-57.11,117.46H267.21s15.39-164.72,43.16-183.4C319.39,387.49,479.42,381.07,500.13,384.63Z" transform="translate(-30.88 -1)" fill="#445487"/>
        <path id="Path_154" data-name="Path 154" d="M420.39,352.41c6.52,0,11.9,1.55,26.66,4.45l.77,28.24c-14-5.64-17.25-13.48-21.31-13.48-10.14,0-15.44,5.23-21.43,5.23-4.18,0-11.7-3.28-11.7-7.74C393.38,359.77,412.31,352.41,420.39,352.41Z" transform="translate(-96.54 -1)" fill="#ebac88"/>
        <path id="Path_155" data-name="Path 155" d="M561.777,553.07c0,2.38,1.39,17.32-1.38,18.71s-33.22,2.21-34.6.83-2.21-4.29-1-5.12,13-3.19,14.6-4.3,3.81-7,3-10.12" transform="translate(-341.676 -1)" fill="#1f161e"/>
        <path id="Path_156" data-name="Path 156" d="M320.75,261.55c0,3.77,21.89,3.88,21.89,0V230.89H320.75Z" transform="translate(81.27 -1)" fill="#eba882"/>
        <path id="Path_157" data-name="Path 157" d="M320.75,241c2,0,14.76,5.64,14.76,8.79V233.15C332.33,233.15,320.75,241,320.75,241Z" transform="translate(88.4 -1)" fill="#1f161e"/>
        <ellipse id="Ellipse_19" data-name="Ellipse 19" cx="26.5" cy="26.5" rx="26.5" ry="26.5" transform="translate(378.42 188.3)" fill="#e49d75"/>
        <path id="Path_158" data-name="Path 158" d="M316.59,195c3.28,5.21,10.14,7.6,17.57,7.6,6.33,0,15.55-1.84,22.11,1.9,3.55,2,7.62,6.55,8.44,15.66,0,1.56,1.77,7.61,1.77,9.56,0,1.33,1.5,2.2,4,2.2,1.29,0,3.84-2.09,3.84-5.28,0-3.69-1.47-5-1.47-8.13s3.83-6.14,3.83-14.84c0-12.53-8-20.25-13.66-20.25-5.16,0-6.78,1.2-7.43,1.71,0-11.39-15-16.59-20.95-16.59-6.8,0-10,2.79-10,6.34,0,5.66,2.7,10.47,4.07,11.55a16.8,16.8,0,0,0-11.3-4.31c-7.79,0-10.41,5.12-10.41,8.62,0,7.61,9.13,14.66,12.53,14.66a36.331,36.331,0,0,1,3-5.19" transform="translate(60.98 -1)" fill="#1f161e"/>
        <ellipse id="Ellipse_20" data-name="Ellipse 20" cx="5.65" cy="5.65" rx="5.65" ry="5.65" transform="translate(419.22 212.65)" fill="#eba67f"/>
        <path id="Path_159" data-name="Path 159" d="M358.379,213.65c-.82,1.17-5,6.08-.59,8.07" transform="translate(30.481 -1)" fill="none" stroke="#1f161e" stroke-linecap="round" stroke-miterlimit="10" stroke-width="1"/>
        <path id="Path_160" data-name="Path 160" d="M343.14,227.45c1.32,0,3.35-1.64,4.42-3.11" transform="translate(53.96 -1)" fill="none" stroke="#1f161e" stroke-linecap="round" stroke-miterlimit="10" stroke-width="1"/>
        <path id="Path_161" data-name="Path 161" d="M394.15,298.62c-2,4.25-11.65,45.25-11.65,58.24" transform="translate(-31.99 -1)" fill="none" stroke="#1f161e" stroke-linecap="round" stroke-miterlimit="10" stroke-width="1"/>
        <path id="Path_162" data-name="Path 162" d="M417.97,348.41c0,46.09-.43,59.46-18.93,59.46-42.64,0-107.1-35-118.59-35-10.15,0-15.45,5.24-21.44,5.24-4.17,0-11.69-3.29-11.69-7.74,0-9.35,18.93-16.71,27-16.71,18.17,0,90.68,17.52,92.45,17.52s4.75-.77,4.75-3.75c0-5.41-3.54-17.91-4-19Z" transform="translate(79.37 -1)" fill="#e49d75"/>
        <path id="Path_163" data-name="Path 163" d="M296.59,308.21c1.22,3.51,10.73,39.78,11.83,44.2" transform="translate(139.65 -1)" fill="none" stroke="#1f161e" stroke-linecap="round" stroke-miterlimit="10" stroke-width="1"/>
        <rect id="Rectangle_48" data-name="Rectangle 48" width="10.24" height="211.599" rx="5.12" transform="matrix(0.967, 0.254, -0.254, 0.967, 117.793, 385.449)" fill="#969696"/>
        <rect id="Rectangle_49" data-name="Rectangle 49" width="10.24" height="211.599" rx="5.12" transform="matrix(-0.967, 0.254, -0.254, -0.967, 189.313, 590.098)" fill="#969696"/>
        <rect id="Rectangle_50" data-name="Rectangle 50" width="10.24" height="211.599" rx="5.12" transform="matrix(-0.967, 0.254, -0.254, -0.967, 259.961, 590.097)" fill="#d8d8d8"/>
        <rect id="Rectangle_51" data-name="Rectangle 51" width="10.257" height="211.959" rx="5.129" transform="translate(188.428 381.307) rotate(14.452)" fill="#d8d8d8"/>
        <rect id="Rectangle_52" data-name="Rectangle 52" width="10.24" height="211.599" rx="5.12" transform="matrix(-0.967, 0.254, -0.254, -0.967, 548.381, 590.103)" fill="#969696"/>
        <rect id="Rectangle_53" data-name="Rectangle 53" width="10.24" height="211.599" rx="5.12" transform="matrix(0.967, 0.254, -0.254, 0.967, 477.734, 385.463)" fill="#969696"/>
        <rect id="Rectangle_54" data-name="Rectangle 54" width="504.23" height="15.15" rx="4.53" transform="translate(90.86 377.14)" fill="#d8d8d8"/>
        <rect id="Rectangle_55" data-name="Rectangle 55" width="10.24" height="211.599" rx="5.12" transform="matrix(-0.967, 0.254, -0.254, -0.967, 621.556, 590.106)" fill="#d8d8d8"/>
        <rect id="Rectangle_56" data-name="Rectangle 56" width="10.24" height="211.599" rx="5.12" transform="matrix(0.967, 0.254, -0.254, 0.967, 550.91, 385.464)" fill="#d8d8d8"/>
        <path id="Path_164" data-name="Path 164" d="M443.727,378.14h92.51l-16.76-57.64a6.73,6.73,0,0,0-6.48-4.79H434.5a6.62,6.62,0,0,0-6.48,8.41Z" transform="translate(-219.347 -1)"/>
        <ellipse id="Ellipse_23" data-name="Ellipse 23" cx="5.66" cy="5.66" rx="5.66" ry="5.66" transform="translate(253.62 340.26)" fill="#fff"/>
        <rect id="Rectangle_57" data-name="Rectangle 57" width="64.91" height="4.05" transform="translate(305.9 373.09)"/>
      </g>
    </g>
  </g>
</svg>
