<svg height="512pt" viewBox="0 0 512 512" width="512pt" xmlns="http://www.w3.org/2000/svg"><path d="m512 45v45h-120v-45c0-24.902344 50.097656-45 75-45 4.800781 0 9.601562.902344 13.800781 2.402344 18 5.699218 31.199219 22.5 31.199219 42.597656zm0 0" fill="#c4b3af"/><path d="m467 0c-24.902344 0-45 20.097656-45 45v421c0 19.5-12.597656 37.300781-30 43.300781-4.800781 1.796875-9.601562 2.699219-15 2.699219-24.902344 0-76-21.097656-76-46l-60 3.898438-181 11.101562v-406c0-41.398438 34.601562-75 76-75zm0 0" fill="#ede9e8"/><path d="m467 0c-24.902344 0-45 20.097656-45 45v421c0 19.5-12.597656 37.300781-30 43.300781-4.800781 1.796875-9.601562 2.699219-15 2.699219-24.902344 0-76-21.097656-76-46l-60 3.898438v-469.898438zm0 0" fill="#dfd7d5"/><path d="m120 330h242v30h-242zm0 0" fill="#d2c5c2"/><path d="m241 180c-49.5 0-90 40.5-90 90v30h181v-30c0-49.5-41.5-90-91-90zm0 0" fill="#73bcff"/><path d="m332 270v30h-91v-120c49.5 0 91 40.5 91 90zm0 0" fill="#0095ff"/><path d="m241 60c-33 0-60 27-60 60s27 60 60 60 60-27 60-60-27-60-60-60zm0 0" fill="#73bcff"/><path d="m241 180v-120c33 0 60 27 60 60s-27 60-60 60zm0 0" fill="#0095ff"/><path d="m377 512h-332c-24.902344 0-45-21.097656-45-46v-15h332v15c0 24.902344 20.097656 46 45 46zm0 0" fill="#d2c5c2"/><g fill="#c4b3af"><path d="m377 512h-136v-61h91v15c0 24.902344 20.097656 46 45 46zm0 0"/><path d="m241 330h121v30h-121zm0 0"/></g></svg>